<?xml version="1.0" encoding="UTF-8" standalone="no"?><!DOCTYPE svg PUBLIC "-//W3C//DTD SVG 1.1//EN" "http://www.w3.org/Graphics/SVG/1.1/DTD/svg11.dtd"><svg width="100%" height="100%" viewBox="0 0 720 720" version="1.1" xmlns="http://www.w3.org/2000/svg" xmlns:xlink="http://www.w3.org/1999/xlink" xml:space="preserve" style="fill-rule:evenodd;clip-rule:evenodd;stroke-linejoin:round;stroke-miterlimit:1.41421;"><path d="M392.737,43.344c0,-32.467 -41.812,-44.693 -60.221,-17.784c-168.941,246.937 71.134,258.053 71.134,378.09c0,48.6 -39.713,87.925 -88.459,87.292c-47.974,-0.622 -86.141,-40.613 -86.141,-88.593l0,-116.641c0,-29.604 -36.108,-43.957 -56.516,-22.512c-36.512,38.365 -74.434,104.078 -74.434,184.104c0,144.412 117.488,261.9 261.9,261.9c144.412,0 261.9,-117.488 261.9,-261.9c0,-232.286 -229.163,-263.268 -229.163,-403.956l0,0Z" style="fill:#fff;fill-rule:nonzero;"/></svg>